<svg width="412" height="105" viewBox="0 0 412 105" fill="none" xmlns="http://www.w3.org/2000/svg">
<g clip-path="url(#clip0_501_7)">
<rect x="323.75" y="86" width="55.12" height="10" fill="#434343"/>
<path d="M35.3135 28.14V36.05H14.9435V48.58H30.5535V56.35H14.9435V77H5.14348V28.14H35.3135ZM57.3826 77.63C53.6493 77.63 50.2893 76.8133 47.3026 75.18C44.316 73.5 41.9593 71.1433 40.2326 68.11C38.5526 65.0767 37.7126 61.5767 37.7126 57.61C37.7126 53.6433 38.576 50.1433 40.3026 47.11C42.076 44.0767 44.4793 41.7433 47.5126 40.11C50.546 38.43 53.9293 37.59 57.6626 37.59C61.396 37.59 64.7793 38.43 67.8126 40.11C70.846 41.7433 73.226 44.0767 74.9526 47.11C76.726 50.1433 77.6126 53.6433 77.6126 57.61C77.6126 61.5767 76.7026 65.0767 74.8826 68.11C73.1093 71.1433 70.6826 73.5 67.6026 75.18C64.5693 76.8133 61.1626 77.63 57.3826 77.63ZM57.3826 69.09C59.156 69.09 60.8126 68.67 62.3526 67.83C63.9393 66.9433 65.1993 65.6367 66.1326 63.91C67.066 62.1833 67.5326 60.0833 67.5326 57.61C67.5326 53.9233 66.5526 51.1 64.5926 49.14C62.6793 47.1333 60.3226 46.13 57.5226 46.13C54.7226 46.13 52.366 47.1333 50.4526 49.14C48.586 51.1 47.6526 53.9233 47.6526 57.61C47.6526 61.2967 48.5626 64.1433 50.3826 66.15C52.2493 68.11 54.5826 69.09 57.3826 69.09ZM99.9213 77.63C96.188 77.63 92.828 76.8133 89.8413 75.18C86.8546 73.5 84.498 71.1433 82.7713 68.11C81.0913 65.0767 80.2513 61.5767 80.2513 57.61C80.2513 53.6433 81.1146 50.1433 82.8413 47.11C84.6146 44.0767 87.018 41.7433 90.0513 40.11C93.0846 38.43 96.468 37.59 100.201 37.59C103.935 37.59 107.318 38.43 110.351 40.11C113.385 41.7433 115.765 44.0767 117.491 47.11C119.265 50.1433 120.151 53.6433 120.151 57.61C120.151 61.5767 119.241 65.0767 117.421 68.11C115.648 71.1433 113.221 73.5 110.141 75.18C107.108 76.8133 103.701 77.63 99.9213 77.63ZM99.9213 69.09C101.695 69.09 103.351 68.67 104.891 67.83C106.478 66.9433 107.738 65.6367 108.671 63.91C109.605 62.1833 110.071 60.0833 110.071 57.61C110.071 53.9233 109.091 51.1 107.131 49.14C105.218 47.1333 102.861 46.13 100.061 46.13C97.2613 46.13 94.9046 47.1333 92.9913 49.14C91.1246 51.1 90.1913 53.9233 90.1913 57.61C90.1913 61.2967 91.1013 64.1433 92.9213 66.15C94.788 68.11 97.1213 69.09 99.9213 69.09ZM136.65 46.27V65.03C136.65 66.3367 136.953 67.2933 137.56 67.9C138.213 68.46 139.287 68.74 140.78 68.74H145.33V77H139.17C130.91 77 126.78 72.9867 126.78 64.96V46.27H122.16V38.22H126.78V28.63H136.65V38.22H145.33V46.27H136.65ZM160.079 43.89C161.339 42.0233 163.065 40.5067 165.259 39.34C167.499 38.1733 170.042 37.59 172.889 37.59C176.202 37.59 179.189 38.4067 181.849 40.04C184.555 41.6733 186.679 44.0067 188.219 47.04C189.805 50.0267 190.599 53.5033 190.599 57.47C190.599 61.4367 189.805 64.96 188.219 68.04C186.679 71.0733 184.555 73.43 181.849 75.11C179.189 76.79 176.202 77.63 172.889 77.63C169.995 77.63 167.452 77.07 165.259 75.95C163.112 74.7833 161.385 73.29 160.079 71.47V77H150.279V25.2H160.079V43.89ZM180.589 57.47C180.589 55.1367 180.099 53.13 179.119 51.45C178.185 49.7233 176.925 48.4167 175.339 47.53C173.799 46.6433 172.119 46.2 170.299 46.2C168.525 46.2 166.845 46.6667 165.259 47.6C163.719 48.4867 162.459 49.7933 161.479 51.52C160.545 53.2467 160.079 55.2767 160.079 57.61C160.079 59.9433 160.545 61.9733 161.479 63.7C162.459 65.4267 163.719 66.7567 165.259 67.69C166.845 68.5767 168.525 69.02 170.299 69.02C172.119 69.02 173.799 68.5533 175.339 67.62C176.925 66.6867 178.185 65.3567 179.119 63.63C180.099 61.9033 180.589 59.85 180.589 57.47ZM193.1 57.47C193.1 53.55 193.87 50.0733 195.41 47.04C196.997 44.0067 199.12 41.6733 201.78 40.04C204.487 38.4067 207.497 37.59 210.81 37.59C213.703 37.59 216.223 38.1733 218.37 39.34C220.563 40.5067 222.313 41.9767 223.62 43.75V38.22H233.49V77H223.62V71.33C222.36 73.15 220.61 74.6667 218.37 75.88C216.177 77.0467 213.633 77.63 210.74 77.63C207.473 77.63 204.487 76.79 201.78 75.11C199.12 73.43 196.997 71.0733 195.41 68.04C193.87 64.96 193.1 61.4367 193.1 57.47ZM223.62 57.61C223.62 55.23 223.153 53.2 222.22 51.52C221.287 49.7933 220.027 48.4867 218.44 47.6C216.853 46.6667 215.15 46.2 213.33 46.2C211.51 46.2 209.83 46.6433 208.29 47.53C206.75 48.4167 205.49 49.7233 204.51 51.45C203.577 53.13 203.11 55.1367 203.11 57.47C203.11 59.8033 203.577 61.8567 204.51 63.63C205.49 65.3567 206.75 66.6867 208.29 67.62C209.877 68.5533 211.557 69.02 213.33 69.02C215.15 69.02 216.853 68.5767 218.44 67.69C220.027 66.7567 221.287 65.45 222.22 63.77C223.153 62.0433 223.62 59.99 223.62 57.61ZM250.761 25.2V77H240.961V25.2H250.761ZM268.144 25.2V77H258.344V25.2H268.144ZM305.686 67.69H286.226L283.006 77H272.716L290.286 28.07H301.696L319.266 77H308.906L305.686 67.69ZM303.026 59.85L295.956 39.41L288.886 59.85H303.026ZM333.534 43.82C334.794 42.0467 336.52 40.5767 338.714 39.41C340.954 38.1967 343.497 37.59 346.344 37.59C349.657 37.59 352.644 38.4067 355.304 40.04C358.01 41.6733 360.134 44.0067 361.674 47.04C363.26 50.0267 364.054 53.5033 364.054 57.47C364.054 61.4367 363.26 64.96 361.674 68.04C360.134 71.0733 358.01 73.43 355.304 75.11C352.644 76.79 349.657 77.63 346.344 77.63C343.497 77.63 340.977 77.0467 338.784 75.88C336.637 74.7133 334.887 73.2433 333.534 71.47V95.48H323.734V38.22H333.534V43.82ZM354.044 57.47C354.044 55.1367 353.554 53.13 352.574 51.45C351.64 49.7233 350.38 48.4167 348.794 47.53C347.254 46.6433 345.574 46.2 343.754 46.2C341.98 46.2 340.3 46.6667 338.714 47.6C337.174 48.4867 335.914 49.7933 334.934 51.52C334 53.2467 333.534 55.2767 333.534 57.61C333.534 59.9433 334 61.9733 334.934 63.7C335.914 65.4267 337.174 66.7567 338.714 67.69C340.3 68.5767 341.98 69.02 343.754 69.02C345.574 69.02 347.254 68.5533 348.794 67.62C350.38 66.6867 351.64 65.3567 352.574 63.63C353.554 61.9033 354.044 59.85 354.044 57.47ZM378.875 43.82C380.135 42.0467 381.862 40.5767 384.055 39.41C386.295 38.1967 388.838 37.59 391.685 37.59C394.998 37.59 397.985 38.4067 400.645 40.04C403.352 41.6733 405.475 44.0067 407.015 47.04C408.602 50.0267 409.395 53.5033 409.395 57.47C409.395 61.4367 408.602 64.96 407.015 68.04C405.475 71.0733 403.352 73.43 400.645 75.11C397.985 76.79 394.998 77.63 391.685 77.63C388.838 77.63 386.318 77.0467 384.125 75.88C381.978 74.7133 380.228 73.2433 378.875 71.47V95.48H369.075V38.22H378.875V43.82ZM399.385 57.47C399.385 55.1367 398.895 53.13 397.915 51.45C396.982 49.7233 395.722 48.4167 394.135 47.53C392.595 46.6433 390.915 46.2 389.095 46.2C387.322 46.2 385.642 46.6667 384.055 47.6C382.515 48.4867 381.255 49.7933 380.275 51.52C379.342 53.2467 378.875 55.2767 378.875 57.61C378.875 59.9433 379.342 61.9733 380.275 63.7C381.255 65.4267 382.515 66.7567 384.055 67.69C385.642 68.5767 387.322 69.02 389.095 69.02C390.915 69.02 392.595 68.5533 394.135 67.62C395.722 66.6867 396.982 65.3567 397.915 63.63C398.895 61.9033 399.385 59.85 399.385 57.47Z" fill="#434343"/>
</g>
<defs>
<clipPath id="clip0_501_7">
<rect width="412" height="105" fill="white"/>
</clipPath>
</defs>
</svg>
